<?xml version="1.0" encoding="UTF-8" standalone="no"?>
<!-- Created with Inkscape (http://www.inkscape.org/) -->

<svg
   version="1.1"
   id="svg2"
   width="86"
   height="75.333336"
   viewBox="0 0 86 75.333336"
   sodipodi:docname="icono svg.svg"
   inkscape:version="1.1.1 (3bf5ae0d25, 2021-09-20)"
   xmlns:inkscape="http://www.inkscape.org/namespaces/inkscape"
   xmlns:sodipodi="http://sodipodi.sourceforge.net/DTD/sodipodi-0.dtd"
   xmlns="http://www.w3.org/2000/svg"
   xmlns:svg="http://www.w3.org/2000/svg">
  <defs
     id="defs6" />
  <sodipodi:namedview
     id="namedview4"
     pagecolor="#ffffff"
     bordercolor="#666666"
     borderopacity="1.0"
     inkscape:pageshadow="2"
     inkscape:pageopacity="0.0"
     inkscape:pagecheckerboard="0"
     showgrid="false"
     inkscape:zoom="10.380531"
     inkscape:cx="42.965048"
     inkscape:cy="37.666668"
     inkscape:window-width="1920"
     inkscape:window-height="986"
     inkscape:window-x="-11"
     inkscape:window-y="-11"
     inkscape:window-maximized="1"
     inkscape:current-layer="g8" />
  <g
     inkscape:groupmode="layer"
     inkscape:label="Image"
     id="g8">
    <path
       style="fill:#000000;stroke-width:0.666667"
       d="m 33.154305,67.777594 c -5.291964,-1.910327 -7.306202,-3.15191 -11.674524,-7.196204 -2.759659,-2.554959 -4.84061,-5.270518 -6.377525,-8.322423 -1.254706,-2.491516 -2.281285,-4.715769 -2.281285,-4.942787 0,-0.227016 3.225,-0.350882 7.166667,-0.275256 9.209104,0.176687 9.269679,0.15702 4.333334,-1.406896 -2.291668,-0.726038 -4.166668,-1.595087 -4.166668,-1.93122 0,-0.336132 1.046402,-0.900075 2.325338,-1.253206 1.278937,-0.353132 3.303937,-1.667734 4.500001,-2.92134 1.196064,-1.253605 2.772163,-2.60628 3.502442,-3.005944 0.730279,-0.399664 1.134322,-0.920119 0.897873,-1.156568 -0.236449,-0.236449 -4.392259,0.94105 -9.235134,2.616665 -4.842875,1.675614 -9.221918,3.046571 -9.731206,3.046571 -1.154518,0 -1.231089,-3.830645 -0.175913,-8.800519 1.285069,-6.052673 4.425917,-11.566082 9.056605,-15.897863 3.935656,-3.681612 7.972209,-6.4116265 8.580587,-5.80325 0.144842,0.144842 0.831026,3.031027 1.524854,6.413743 0.693826,3.382716 1.477879,6.361329 1.742339,6.619141 0.264459,0.257811 0.261432,-2.198039 -0.0067,-5.457444 -0.359382,-4.368183 -0.287977,-5.80284 0.271603,-5.457001 0.717537,0.443462 5.944727,6.708622 10.472834,12.55244 3.132491,4.042682 3.83322,4.224448 7.110553,1.844447 4.846331,-3.51941 12.107823,-8.318649 13.373445,-8.838732 0.665227,-0.27336 1.0195,-0.804449 0.787274,-1.180198 -0.232227,-0.375749 -0.6265,-0.56783 -0.876167,-0.426846 -0.24966,0.140984 -2.697781,0.942156 -5.440262,1.780382 -2.742481,0.838227 -5.892481,2.076648 -7,2.752048 -1.107519,0.675401 -2.223685,1.229122 -2.480369,1.230493 -0.256684,0.0014 -3.548775,-2.990416 -7.315758,-6.648416 -4.651633,-4.517053 -6.631085,-6.8688842 -6.16966,-7.3303082 0.373671,-0.3736717 2.955249,-0.8717823 5.736841,-1.106913 19.95291,-1.6866387 37.344027,16.6407852 33.928167,35.7547962 -0.458693,2.566667 -1.03174,4.664617 -1.27344,4.662112 -0.2417,-0.0025 -1.17084,-1.078364 -2.06476,-2.390796 -0.89392,-1.312431 -3.411826,-4.002944 -5.595346,-5.978917 -2.93202,-2.653323 -3.794597,-3.814886 -3.29904,-4.442539 0.369053,-0.467423 0.869906,-2.15239 1.113006,-3.744371 0.243107,-1.591981 1.051594,-4.089391 1.796634,-5.5498 2.131233,-4.177552 1.059746,-4.63068 -1.314,-0.555689 -3.291869,5.651108 -3.615138,6.158973 -5.575947,8.759971 -1.008333,1.337546 -1.833333,2.792419 -1.833333,3.233052 0,1.806308 3.101983,4.911987 9.04408,9.054853 3.459059,2.411699 6.289226,4.753797 6.289226,5.204663 0,1.603934 -3.81608,6.795954 -7.287333,9.914889 -4.28723,3.852086 -10.837092,7.085546 -15.462519,7.63336 l -3.43126,0.406387 2.423889,-4.334322 c 1.33314,-2.383875 2.430478,-4.905489 2.438531,-5.603586 0.0081,-0.698096 0.607879,-2.57664 1.332947,-4.17454 l 1.318306,-2.905274 6.75472,0.483462 c 4.662652,0.333724 6.620726,0.266656 6.322092,-0.216542 -0.74188,-1.200388 -15.07604,-3.380822 -15.07604,-2.293284 0,0.279437 -1.8,3.031202 -4,6.115032 -2.2,3.083831 -4,6.007821 -4,6.497756 0,1.958707 -1.286614,0.711992 -2.348711,-2.275876 -3.06101,-8.611154 -3.97574,-8.295141 -3.377025,1.166667 0.531135,8.393813 0.673925,8.22916 -5.274263,6.08194 z M 49.323024,50.528987 c 0.180689,-0.546103 -0.432778,-0.833334 -1.779831,-0.833334 -2.392877,0 -2.484547,-0.486674 -0.950828,-5.047907 2.122326,-6.311733 7.75992,-13.61876 10.507289,-13.61876 1.753429,0 3.393496,-1.579058 2.739366,-2.637464 -1.450609,-2.347134 -7.762071,1.702514 -11.119192,7.134451 l -1.443298,2.335304 -1.876334,-4.133486 c -2.077341,-4.576296 -1.89218,-4.527579 -7.689663,-2.023179 -3.200878,1.382717 -5.111783,3.90304 -5.111783,6.742012 0,2.517421 1.8415,4.563084 3.0341,3.370484 0.648765,-0.648764 0.649765,-1.096233 0.0047,-2.129049 -1.256498,-2.011974 -0.994936,-3.057188 1.234511,-4.933144 3.498427,-2.943732 4.965114,-2.080236 6.317812,3.71954 0.664585,2.849449 -0.951803,9.207176 -2.769003,10.891301 -0.879917,0.815535 -1.599898,1.68601 -1.599898,1.934387 0,0.856738 10.211524,0.106914 10.502052,-0.771156 z"
       id="path102" />
  </g>
</svg>
